<mxfile host="65bd71144e">
    <diagram id="PQkm_Z8xNju6MMOo48rR" name="MHA">
        <mxGraphModel dx="1086" dy="795" grid="1" gridSize="10" guides="1" tooltips="1" connect="1" arrows="1" fold="1" page="1" pageScale="1" pageWidth="827" pageHeight="1169" math="0" shadow="0">
            <root>
                <mxCell id="0"/>
                <mxCell id="1" parent="0"/>
                <mxCell id="24" value="" style="rounded=0;whiteSpace=wrap;html=1;fillColor=#60a917;fontColor=#ffffff;strokeColor=#2D7600;" parent="1" vertex="1">
                    <mxGeometry x="220" y="150" width="190" height="65" as="geometry"/>
                </mxCell>
                <mxCell id="23" value="" style="rounded=0;whiteSpace=wrap;html=1;fillColor=#60a917;fontColor=#ffffff;strokeColor=#2D7600;" parent="1" vertex="1">
                    <mxGeometry x="210" y="157.5" width="190" height="65" as="geometry"/>
                </mxCell>
                <mxCell id="2" value="" style="rounded=0;whiteSpace=wrap;html=1;fillColor=#60a917;fontColor=#ffffff;strokeColor=#2D7600;" parent="1" vertex="1">
                    <mxGeometry x="200" y="165" width="190" height="65" as="geometry"/>
                </mxCell>
                <mxCell id="3" value="vector" style="rounded=0;whiteSpace=wrap;html=1;fillColor=#008a00;fontColor=#ffffff;strokeColor=#005700;fontSize=9;" parent="1" vertex="1">
                    <mxGeometry x="210" y="170" width="50" height="10" as="geometry"/>
                </mxCell>
                <mxCell id="4" value="" style="rounded=0;whiteSpace=wrap;html=1;fillColor=#008a00;fontColor=#ffffff;strokeColor=#005700;" parent="1" vertex="1">
                    <mxGeometry x="210" y="185" width="50" height="10" as="geometry"/>
                </mxCell>
                <mxCell id="5" value="" style="rounded=0;whiteSpace=wrap;html=1;fillColor=#008a00;fontColor=#ffffff;strokeColor=#005700;" parent="1" vertex="1">
                    <mxGeometry x="210" y="200" width="50" height="10" as="geometry"/>
                </mxCell>
                <mxCell id="6" value="" style="rounded=0;whiteSpace=wrap;html=1;fillColor=#008a00;fontColor=#ffffff;strokeColor=#005700;" parent="1" vertex="1">
                    <mxGeometry x="210" y="215" width="50" height="10" as="geometry"/>
                </mxCell>
                <mxCell id="7" value="" style="rounded=0;whiteSpace=wrap;html=1;fillColor=#008a00;fontColor=#ffffff;strokeColor=#005700;" parent="1" vertex="1">
                    <mxGeometry x="270" y="170" width="50" height="10" as="geometry"/>
                </mxCell>
                <mxCell id="8" value="" style="rounded=0;whiteSpace=wrap;html=1;fillColor=#008a00;fontColor=#ffffff;strokeColor=#005700;" parent="1" vertex="1">
                    <mxGeometry x="330" y="170" width="50" height="10" as="geometry"/>
                </mxCell>
                <mxCell id="9" value="" style="rounded=0;whiteSpace=wrap;html=1;fillColor=#008a00;fontColor=#ffffff;strokeColor=#005700;" parent="1" vertex="1">
                    <mxGeometry x="270" y="185" width="50" height="10" as="geometry"/>
                </mxCell>
                <mxCell id="10" value="" style="rounded=0;whiteSpace=wrap;html=1;fillColor=#008a00;fontColor=#ffffff;strokeColor=#005700;" parent="1" vertex="1">
                    <mxGeometry x="270" y="200" width="50" height="10" as="geometry"/>
                </mxCell>
                <mxCell id="11" value="" style="rounded=0;whiteSpace=wrap;html=1;fillColor=#008a00;fontColor=#ffffff;strokeColor=#005700;" parent="1" vertex="1">
                    <mxGeometry x="270" y="215" width="50" height="10" as="geometry"/>
                </mxCell>
                <mxCell id="12" value="" style="rounded=0;whiteSpace=wrap;html=1;fillColor=#008a00;fontColor=#ffffff;strokeColor=#005700;" parent="1" vertex="1">
                    <mxGeometry x="330" y="185" width="50" height="10" as="geometry"/>
                </mxCell>
                <mxCell id="13" value="" style="rounded=0;whiteSpace=wrap;html=1;fillColor=#008a00;fontColor=#ffffff;strokeColor=#005700;" parent="1" vertex="1">
                    <mxGeometry x="330" y="200" width="50" height="10" as="geometry"/>
                </mxCell>
                <mxCell id="14" value="" style="rounded=0;whiteSpace=wrap;html=1;fillColor=#008a00;fontColor=#ffffff;strokeColor=#005700;" parent="1" vertex="1">
                    <mxGeometry x="330" y="215" width="50" height="10" as="geometry"/>
                </mxCell>
                <mxCell id="15" value="sequence length" style="text;html=1;align=center;verticalAlign=middle;resizable=0;points=[];autosize=1;strokeColor=none;fillColor=none;fontSize=9;" parent="1" vertex="1">
                    <mxGeometry x="65" y="185" width="90" height="20" as="geometry"/>
                </mxCell>
                <mxCell id="18" value="A" style="text;html=1;align=center;verticalAlign=middle;resizable=0;points=[];autosize=1;strokeColor=none;fillColor=none;" parent="1" vertex="1">
                    <mxGeometry x="160" y="160" width="30" height="30" as="geometry"/>
                </mxCell>
                <mxCell id="20" value="B" style="text;html=1;align=center;verticalAlign=middle;resizable=0;points=[];autosize=1;strokeColor=none;fillColor=none;" parent="1" vertex="1">
                    <mxGeometry x="160" y="175" width="30" height="30" as="geometry"/>
                </mxCell>
                <mxCell id="21" value="C" style="text;html=1;align=center;verticalAlign=middle;resizable=0;points=[];autosize=1;strokeColor=none;fillColor=none;" parent="1" vertex="1">
                    <mxGeometry x="160" y="190" width="30" height="30" as="geometry"/>
                </mxCell>
                <mxCell id="22" value="D" style="text;html=1;align=center;verticalAlign=middle;resizable=0;points=[];autosize=1;strokeColor=none;fillColor=none;" parent="1" vertex="1">
                    <mxGeometry x="160" y="205" width="30" height="30" as="geometry"/>
                </mxCell>
                <mxCell id="28" value="" style="shape=crossbar;whiteSpace=wrap;html=1;rounded=1;direction=south;" parent="1" vertex="1">
                    <mxGeometry x="150" y="167.5" width="10" height="60" as="geometry"/>
                </mxCell>
                <mxCell id="29" value="" style="shape=crossbar;whiteSpace=wrap;html=1;rounded=1;direction=south;rotation=45;" parent="1" vertex="1">
                    <mxGeometry x="200" y="137.26" width="5.86" height="27.74" as="geometry"/>
                </mxCell>
                <mxCell id="30" value="num of head" style="text;html=1;align=center;verticalAlign=middle;resizable=0;points=[];autosize=1;strokeColor=none;fillColor=none;fontSize=9;" parent="1" vertex="1">
                    <mxGeometry x="140" y="137.26" width="70" height="20" as="geometry"/>
                </mxCell>
                <mxCell id="48Z4PR9PSzRH9TsHBaXV-38" value="" style="group" parent="1" vertex="1" connectable="0">
                    <mxGeometry x="340" y="990" width="190" height="210" as="geometry"/>
                </mxCell>
                <mxCell id="48Z4PR9PSzRH9TsHBaXV-39" value="query matrix" style="rounded=0;whiteSpace=wrap;html=1;fillColor=#008a00;fontColor=#ffffff;strokeColor=#005700;fontSize=9;" parent="48Z4PR9PSzRH9TsHBaXV-38" vertex="1">
                    <mxGeometry x="15" width="160" height="160" as="geometry"/>
                </mxCell>
                <mxCell id="48Z4PR9PSzRH9TsHBaXV-40" value="( d , num_head * head_size )" style="text;html=1;align=center;verticalAlign=middle;resizable=0;points=[];autosize=1;strokeColor=none;fillColor=none;fontSize=9;" parent="48Z4PR9PSzRH9TsHBaXV-38" vertex="1">
                    <mxGeometry x="25" y="170" width="140" height="20" as="geometry"/>
                </mxCell>
                <mxCell id="48Z4PR9PSzRH9TsHBaXV-41" value="( d , d )" style="text;html=1;align=center;verticalAlign=middle;resizable=0;points=[];autosize=1;strokeColor=none;fillColor=none;fontSize=9;" parent="48Z4PR9PSzRH9TsHBaXV-38" vertex="1">
                    <mxGeometry x="70" y="190" width="50" height="20" as="geometry"/>
                </mxCell>
                <mxCell id="48Z4PR9PSzRH9TsHBaXV-50" value="" style="group" parent="1" vertex="1" connectable="0">
                    <mxGeometry x="575" y="1057.5" width="160" height="75" as="geometry"/>
                </mxCell>
                <mxCell id="48Z4PR9PSzRH9TsHBaXV-51" value="query of one token" style="rounded=0;whiteSpace=wrap;html=1;fillColor=#008a00;fontColor=#ffffff;strokeColor=#005700;fontSize=9;" parent="48Z4PR9PSzRH9TsHBaXV-50" vertex="1">
                    <mxGeometry width="160" height="20" as="geometry"/>
                </mxCell>
                <mxCell id="48Z4PR9PSzRH9TsHBaXV-52" value="( 1 , d )" style="text;html=1;align=center;verticalAlign=middle;resizable=0;points=[];autosize=1;strokeColor=none;fillColor=none;fontSize=9;" parent="48Z4PR9PSzRH9TsHBaXV-50" vertex="1">
                    <mxGeometry x="55" y="55" width="50" height="20" as="geometry"/>
                </mxCell>
                <mxCell id="48Z4PR9PSzRH9TsHBaXV-53" value="( 1 , num_head * head_size )" style="text;html=1;align=center;verticalAlign=middle;resizable=0;points=[];autosize=1;strokeColor=none;fillColor=none;fontSize=9;" parent="48Z4PR9PSzRH9TsHBaXV-50" vertex="1">
                    <mxGeometry x="10" y="35" width="140" height="20" as="geometry"/>
                </mxCell>
                <mxCell id="48Z4PR9PSzRH9TsHBaXV-54" value="" style="group" parent="1" vertex="1" connectable="0">
                    <mxGeometry x="40" y="807.5" width="160" height="55" as="geometry"/>
                </mxCell>
                <mxCell id="48Z4PR9PSzRH9TsHBaXV-55" value="embedding of one token" style="rounded=0;whiteSpace=wrap;html=1;fillColor=#008a00;fontColor=#ffffff;strokeColor=#005700;fontSize=9;" parent="48Z4PR9PSzRH9TsHBaXV-54" vertex="1">
                    <mxGeometry width="160" height="20" as="geometry"/>
                </mxCell>
                <mxCell id="48Z4PR9PSzRH9TsHBaXV-56" value="(1,d)" style="text;html=1;align=center;verticalAlign=middle;resizable=0;points=[];autosize=1;strokeColor=none;fillColor=none;fontSize=9;" parent="48Z4PR9PSzRH9TsHBaXV-54" vertex="1">
                    <mxGeometry x="60" y="35" width="40" height="20" as="geometry"/>
                </mxCell>
                <mxCell id="Aw5UU5DRIQ5E5-NPyl7w-30" value="" style="group" parent="1" vertex="1" connectable="0">
                    <mxGeometry x="340" y="710" width="190" height="210" as="geometry"/>
                </mxCell>
                <mxCell id="Aw5UU5DRIQ5E5-NPyl7w-31" value="value matrix" style="rounded=0;whiteSpace=wrap;html=1;fillColor=#008a00;fontColor=#ffffff;strokeColor=#005700;fontSize=9;" parent="Aw5UU5DRIQ5E5-NPyl7w-30" vertex="1">
                    <mxGeometry x="15" width="160" height="160" as="geometry"/>
                </mxCell>
                <mxCell id="Aw5UU5DRIQ5E5-NPyl7w-32" value="( d , num_head * head_size )" style="text;html=1;align=center;verticalAlign=middle;resizable=0;points=[];autosize=1;strokeColor=none;fillColor=none;fontSize=9;" parent="Aw5UU5DRIQ5E5-NPyl7w-30" vertex="1">
                    <mxGeometry x="25" y="170" width="140" height="20" as="geometry"/>
                </mxCell>
                <mxCell id="Aw5UU5DRIQ5E5-NPyl7w-33" value="( d , d )" style="text;html=1;align=center;verticalAlign=middle;resizable=0;points=[];autosize=1;strokeColor=none;fillColor=none;fontSize=9;" parent="Aw5UU5DRIQ5E5-NPyl7w-30" vertex="1">
                    <mxGeometry x="70" y="190" width="50" height="20" as="geometry"/>
                </mxCell>
                <mxCell id="Aw5UU5DRIQ5E5-NPyl7w-34" value="" style="group" parent="1" vertex="1" connectable="0">
                    <mxGeometry x="575" y="777.5" width="160" height="75" as="geometry"/>
                </mxCell>
                <mxCell id="Aw5UU5DRIQ5E5-NPyl7w-35" value="value of one token" style="rounded=0;whiteSpace=wrap;html=1;fillColor=#008a00;fontColor=#ffffff;strokeColor=#005700;fontSize=9;" parent="Aw5UU5DRIQ5E5-NPyl7w-34" vertex="1">
                    <mxGeometry width="160" height="20" as="geometry"/>
                </mxCell>
                <mxCell id="Aw5UU5DRIQ5E5-NPyl7w-36" value="( 1 , d )" style="text;html=1;align=center;verticalAlign=middle;resizable=0;points=[];autosize=1;strokeColor=none;fillColor=none;fontSize=9;" parent="Aw5UU5DRIQ5E5-NPyl7w-34" vertex="1">
                    <mxGeometry x="55" y="55" width="50" height="20" as="geometry"/>
                </mxCell>
                <mxCell id="Aw5UU5DRIQ5E5-NPyl7w-37" value="( 1 , num_head * head_size )" style="text;html=1;align=center;verticalAlign=middle;resizable=0;points=[];autosize=1;strokeColor=none;fillColor=none;fontSize=9;" parent="Aw5UU5DRIQ5E5-NPyl7w-34" vertex="1">
                    <mxGeometry x="10" y="35" width="140" height="20" as="geometry"/>
                </mxCell>
                <mxCell id="Aw5UU5DRIQ5E5-NPyl7w-38" value="" style="group" parent="1" vertex="1" connectable="0">
                    <mxGeometry x="340" y="430" width="190" height="210" as="geometry"/>
                </mxCell>
                <mxCell id="Aw5UU5DRIQ5E5-NPyl7w-39" value="key matrix" style="rounded=0;whiteSpace=wrap;html=1;fillColor=#008a00;fontColor=#ffffff;strokeColor=#005700;fontSize=9;" parent="Aw5UU5DRIQ5E5-NPyl7w-38" vertex="1">
                    <mxGeometry x="15" width="160" height="160" as="geometry"/>
                </mxCell>
                <mxCell id="Aw5UU5DRIQ5E5-NPyl7w-40" value="( d , num_head * head_size )" style="text;html=1;align=center;verticalAlign=middle;resizable=0;points=[];autosize=1;strokeColor=none;fillColor=none;fontSize=9;" parent="Aw5UU5DRIQ5E5-NPyl7w-38" vertex="1">
                    <mxGeometry x="25" y="170" width="140" height="20" as="geometry"/>
                </mxCell>
                <mxCell id="Aw5UU5DRIQ5E5-NPyl7w-41" value="( d , d )" style="text;html=1;align=center;verticalAlign=middle;resizable=0;points=[];autosize=1;strokeColor=none;fillColor=none;fontSize=9;" parent="Aw5UU5DRIQ5E5-NPyl7w-38" vertex="1">
                    <mxGeometry x="70" y="190" width="50" height="20" as="geometry"/>
                </mxCell>
                <mxCell id="Aw5UU5DRIQ5E5-NPyl7w-42" value="" style="group" parent="1" vertex="1" connectable="0">
                    <mxGeometry x="575" y="497.5" width="160" height="75" as="geometry"/>
                </mxCell>
                <mxCell id="Aw5UU5DRIQ5E5-NPyl7w-43" value="key of one token" style="rounded=0;whiteSpace=wrap;html=1;fillColor=#008a00;fontColor=#ffffff;strokeColor=#005700;fontSize=9;" parent="Aw5UU5DRIQ5E5-NPyl7w-42" vertex="1">
                    <mxGeometry width="160" height="20" as="geometry"/>
                </mxCell>
                <mxCell id="Aw5UU5DRIQ5E5-NPyl7w-44" value="( 1 , d )" style="text;html=1;align=center;verticalAlign=middle;resizable=0;points=[];autosize=1;strokeColor=none;fillColor=none;fontSize=9;" parent="Aw5UU5DRIQ5E5-NPyl7w-42" vertex="1">
                    <mxGeometry x="55" y="55" width="50" height="20" as="geometry"/>
                </mxCell>
                <mxCell id="Aw5UU5DRIQ5E5-NPyl7w-45" value="( 1 , num_head * head_size )" style="text;html=1;align=center;verticalAlign=middle;resizable=0;points=[];autosize=1;strokeColor=none;fillColor=none;fontSize=9;" parent="Aw5UU5DRIQ5E5-NPyl7w-42" vertex="1">
                    <mxGeometry x="10" y="35" width="140" height="20" as="geometry"/>
                </mxCell>
                <mxCell id="Aw5UU5DRIQ5E5-NPyl7w-48" value="devide into multi-head" style="shape=singleArrow;whiteSpace=wrap;html=1;" parent="1" vertex="1">
                    <mxGeometry x="840" y="777.5" width="180" height="60" as="geometry"/>
                </mxCell>
                <mxCell id="Aw5UU5DRIQ5E5-NPyl7w-49" value="" style="group" parent="1" vertex="1" connectable="0">
                    <mxGeometry x="1120" y="500" width="170" height="75" as="geometry"/>
                </mxCell>
                <mxCell id="Aw5UU5DRIQ5E5-NPyl7w-50" value="head1" style="rounded=0;whiteSpace=wrap;html=1;fillColor=#008a00;fontColor=#ffffff;strokeColor=#005700;fontSize=9;" parent="Aw5UU5DRIQ5E5-NPyl7w-49" vertex="1">
                    <mxGeometry width="80" height="20" as="geometry"/>
                </mxCell>
                <mxCell id="Aw5UU5DRIQ5E5-NPyl7w-51" value="num_head * ( 1 , d / num_size )" style="text;html=1;align=center;verticalAlign=middle;resizable=0;points=[];autosize=1;strokeColor=none;fillColor=none;fontSize=9;" parent="Aw5UU5DRIQ5E5-NPyl7w-49" vertex="1">
                    <mxGeometry x="10" y="55" width="150" height="20" as="geometry"/>
                </mxCell>
                <mxCell id="Aw5UU5DRIQ5E5-NPyl7w-52" value="num_head *&amp;nbsp; ( 1 , head_size )" style="text;html=1;align=center;verticalAlign=middle;resizable=0;points=[];autosize=1;strokeColor=none;fillColor=none;fontSize=9;" parent="Aw5UU5DRIQ5E5-NPyl7w-49" vertex="1">
                    <mxGeometry x="15" y="35" width="140" height="20" as="geometry"/>
                </mxCell>
                <mxCell id="Aw5UU5DRIQ5E5-NPyl7w-53" value="head2" style="rounded=0;whiteSpace=wrap;html=1;fillColor=#008a00;fontColor=#ffffff;strokeColor=#005700;fontSize=9;" parent="Aw5UU5DRIQ5E5-NPyl7w-49" vertex="1">
                    <mxGeometry x="90" width="80" height="20" as="geometry"/>
                </mxCell>
                <mxCell id="Aw5UU5DRIQ5E5-NPyl7w-54" value="" style="group" parent="1" vertex="1" connectable="0">
                    <mxGeometry x="1120" y="770" width="170" height="75" as="geometry"/>
                </mxCell>
                <mxCell id="Aw5UU5DRIQ5E5-NPyl7w-55" value="head1" style="rounded=0;whiteSpace=wrap;html=1;fillColor=#008a00;fontColor=#ffffff;strokeColor=#005700;fontSize=9;" parent="Aw5UU5DRIQ5E5-NPyl7w-54" vertex="1">
                    <mxGeometry width="80" height="20" as="geometry"/>
                </mxCell>
                <mxCell id="Aw5UU5DRIQ5E5-NPyl7w-56" value="num_head * ( 1 , d / num_size )" style="text;html=1;align=center;verticalAlign=middle;resizable=0;points=[];autosize=1;strokeColor=none;fillColor=none;fontSize=9;" parent="Aw5UU5DRIQ5E5-NPyl7w-54" vertex="1">
                    <mxGeometry x="10" y="55" width="150" height="20" as="geometry"/>
                </mxCell>
                <mxCell id="Aw5UU5DRIQ5E5-NPyl7w-57" value="num_head *&amp;nbsp; ( 1 , head_size )" style="text;html=1;align=center;verticalAlign=middle;resizable=0;points=[];autosize=1;strokeColor=none;fillColor=none;fontSize=9;" parent="Aw5UU5DRIQ5E5-NPyl7w-54" vertex="1">
                    <mxGeometry x="15" y="35" width="140" height="20" as="geometry"/>
                </mxCell>
                <mxCell id="Aw5UU5DRIQ5E5-NPyl7w-58" value="head2" style="rounded=0;whiteSpace=wrap;html=1;fillColor=#008a00;fontColor=#ffffff;strokeColor=#005700;fontSize=9;" parent="Aw5UU5DRIQ5E5-NPyl7w-54" vertex="1">
                    <mxGeometry x="90" width="80" height="20" as="geometry"/>
                </mxCell>
                <mxCell id="Aw5UU5DRIQ5E5-NPyl7w-59" value="" style="group" parent="1" vertex="1" connectable="0">
                    <mxGeometry x="1120" y="1040" width="170" height="75" as="geometry"/>
                </mxCell>
                <mxCell id="Aw5UU5DRIQ5E5-NPyl7w-60" value="head1" style="rounded=0;whiteSpace=wrap;html=1;fillColor=#008a00;fontColor=#ffffff;strokeColor=#005700;fontSize=9;" parent="Aw5UU5DRIQ5E5-NPyl7w-59" vertex="1">
                    <mxGeometry width="80" height="20" as="geometry"/>
                </mxCell>
                <mxCell id="Aw5UU5DRIQ5E5-NPyl7w-61" value="num_head * ( 1 , d / num_size )" style="text;html=1;align=center;verticalAlign=middle;resizable=0;points=[];autosize=1;strokeColor=none;fillColor=none;fontSize=9;" parent="Aw5UU5DRIQ5E5-NPyl7w-59" vertex="1">
                    <mxGeometry x="10" y="55" width="150" height="20" as="geometry"/>
                </mxCell>
                <mxCell id="Aw5UU5DRIQ5E5-NPyl7w-62" value="num_head *&amp;nbsp; ( 1 , head_size )" style="text;html=1;align=center;verticalAlign=middle;resizable=0;points=[];autosize=1;strokeColor=none;fillColor=none;fontSize=9;" parent="Aw5UU5DRIQ5E5-NPyl7w-59" vertex="1">
                    <mxGeometry x="15" y="35" width="140" height="20" as="geometry"/>
                </mxCell>
                <mxCell id="Aw5UU5DRIQ5E5-NPyl7w-63" value="head2" style="rounded=0;whiteSpace=wrap;html=1;fillColor=#008a00;fontColor=#ffffff;strokeColor=#005700;fontSize=9;" parent="Aw5UU5DRIQ5E5-NPyl7w-59" vertex="1">
                    <mxGeometry x="90" width="80" height="20" as="geometry"/>
                </mxCell>
            </root>
        </mxGraphModel>
    </diagram>
    <diagram id="gLPEupRLkroFJUi7iQ2N" name="GQA">
        <mxGraphModel dx="1086" dy="795" grid="1" gridSize="10" guides="1" tooltips="1" connect="1" arrows="1" fold="1" page="1" pageScale="1" pageWidth="827" pageHeight="1169" math="0" shadow="0">
            <root>
                <mxCell id="0"/>
                <mxCell id="1" parent="0"/>
                <mxCell id="bSD-Y_1db5gp3y5uP0RW-18" value="" style="group" parent="1" vertex="1" connectable="0">
                    <mxGeometry x="310" y="120" width="190" height="210" as="geometry"/>
                </mxCell>
                <mxCell id="bSD-Y_1db5gp3y5uP0RW-4" value="key matrix" style="rounded=0;whiteSpace=wrap;html=1;fillColor=#008a00;fontColor=#ffffff;strokeColor=#005700;fontSize=9;" parent="bSD-Y_1db5gp3y5uP0RW-18" vertex="1">
                    <mxGeometry x="55" width="80" height="160" as="geometry"/>
                </mxCell>
                <mxCell id="bSD-Y_1db5gp3y5uP0RW-5" value="( d , num_group * head_size )" style="text;html=1;align=center;verticalAlign=middle;resizable=0;points=[];autosize=1;strokeColor=none;fillColor=none;fontSize=9;" parent="bSD-Y_1db5gp3y5uP0RW-18" vertex="1">
                    <mxGeometry x="25" y="170" width="140" height="20" as="geometry"/>
                </mxCell>
                <mxCell id="bSD-Y_1db5gp3y5uP0RW-7" value="( d , d * num_group / num_head )" style="text;html=1;align=center;verticalAlign=middle;resizable=0;points=[];autosize=1;strokeColor=none;fillColor=none;fontSize=9;" parent="bSD-Y_1db5gp3y5uP0RW-18" vertex="1">
                    <mxGeometry x="15" y="190" width="160" height="20" as="geometry"/>
                </mxCell>
                <mxCell id="bSD-Y_1db5gp3y5uP0RW-21" value="" style="group" parent="1" vertex="1" connectable="0">
                    <mxGeometry x="310" y="370" width="190" height="210" as="geometry"/>
                </mxCell>
                <mxCell id="bSD-Y_1db5gp3y5uP0RW-22" value="value matrix" style="rounded=0;whiteSpace=wrap;html=1;fillColor=#008a00;fontColor=#ffffff;strokeColor=#005700;fontSize=9;" parent="bSD-Y_1db5gp3y5uP0RW-21" vertex="1">
                    <mxGeometry x="55" width="80" height="160" as="geometry"/>
                </mxCell>
                <mxCell id="bSD-Y_1db5gp3y5uP0RW-23" value="( d ,&amp;nbsp;&lt;span style=&quot;color: rgb(0, 0, 0);&quot;&gt;num_group * head_size&lt;/span&gt;&amp;nbsp;)" style="text;html=1;align=center;verticalAlign=middle;resizable=0;points=[];autosize=1;strokeColor=none;fillColor=none;fontSize=9;" parent="bSD-Y_1db5gp3y5uP0RW-21" vertex="1">
                    <mxGeometry x="25" y="170" width="140" height="20" as="geometry"/>
                </mxCell>
                <mxCell id="bSD-Y_1db5gp3y5uP0RW-24" value="( d ,&amp;nbsp;&lt;span style=&quot;color: rgb(0, 0, 0);&quot;&gt;d * num_group / num_head&lt;/span&gt;&amp;nbsp;)" style="text;html=1;align=center;verticalAlign=middle;resizable=0;points=[];autosize=1;strokeColor=none;fillColor=none;fontSize=9;" parent="bSD-Y_1db5gp3y5uP0RW-21" vertex="1">
                    <mxGeometry x="15" y="190" width="160" height="20" as="geometry"/>
                </mxCell>
                <mxCell id="bSD-Y_1db5gp3y5uP0RW-33" value="" style="group" parent="1" vertex="1" connectable="0">
                    <mxGeometry x="310" y="630" width="190" height="210" as="geometry"/>
                </mxCell>
                <mxCell id="bSD-Y_1db5gp3y5uP0RW-30" value="query matrix" style="rounded=0;whiteSpace=wrap;html=1;fillColor=#008a00;fontColor=#ffffff;strokeColor=#005700;fontSize=9;" parent="bSD-Y_1db5gp3y5uP0RW-33" vertex="1">
                    <mxGeometry x="15" width="160" height="160" as="geometry"/>
                </mxCell>
                <mxCell id="bSD-Y_1db5gp3y5uP0RW-31" value="( d , num_head * head_size )" style="text;html=1;align=center;verticalAlign=middle;resizable=0;points=[];autosize=1;strokeColor=none;fillColor=none;fontSize=9;" parent="bSD-Y_1db5gp3y5uP0RW-33" vertex="1">
                    <mxGeometry x="25" y="170" width="140" height="20" as="geometry"/>
                </mxCell>
                <mxCell id="bSD-Y_1db5gp3y5uP0RW-32" value="( d , d )" style="text;html=1;align=center;verticalAlign=middle;resizable=0;points=[];autosize=1;strokeColor=none;fillColor=none;fontSize=9;" parent="bSD-Y_1db5gp3y5uP0RW-33" vertex="1">
                    <mxGeometry x="70" y="190" width="50" height="20" as="geometry"/>
                </mxCell>
                <mxCell id="bSD-Y_1db5gp3y5uP0RW-37" value="" style="group" parent="1" vertex="1" connectable="0">
                    <mxGeometry x="530" y="180" width="190" height="75" as="geometry"/>
                </mxCell>
                <mxCell id="bSD-Y_1db5gp3y5uP0RW-3" value="key of one token" style="rounded=0;whiteSpace=wrap;html=1;fillColor=#008a00;fontColor=#ffffff;strokeColor=#005700;fontSize=9;" parent="bSD-Y_1db5gp3y5uP0RW-37" vertex="1">
                    <mxGeometry x="55" width="80" height="20" as="geometry"/>
                </mxCell>
                <mxCell id="bSD-Y_1db5gp3y5uP0RW-8" value="( 1 ,&amp;nbsp;&lt;span style=&quot;color: rgb(0, 0, 0);&quot;&gt;d * num_group / num_head&lt;/span&gt;&amp;nbsp;)" style="text;html=1;align=center;verticalAlign=middle;resizable=0;points=[];autosize=1;strokeColor=none;fillColor=none;fontSize=9;" parent="bSD-Y_1db5gp3y5uP0RW-37" vertex="1">
                    <mxGeometry x="15" y="55" width="160" height="20" as="geometry"/>
                </mxCell>
                <mxCell id="bSD-Y_1db5gp3y5uP0RW-35" value="( 1 ,&amp;nbsp;&lt;span style=&quot;color: rgb(0, 0, 0);&quot;&gt;num_group * head_size&lt;/span&gt;&amp;nbsp;)" style="text;html=1;align=center;verticalAlign=middle;resizable=0;points=[];autosize=1;strokeColor=none;fillColor=none;fontSize=9;" parent="bSD-Y_1db5gp3y5uP0RW-37" vertex="1">
                    <mxGeometry x="25" y="35" width="140" height="20" as="geometry"/>
                </mxCell>
                <mxCell id="bSD-Y_1db5gp3y5uP0RW-38" value="" style="group" parent="1" vertex="1" connectable="0">
                    <mxGeometry x="530" y="430" width="190" height="75" as="geometry"/>
                </mxCell>
                <mxCell id="bSD-Y_1db5gp3y5uP0RW-39" value="value of one token" style="rounded=0;whiteSpace=wrap;html=1;fillColor=#008a00;fontColor=#ffffff;strokeColor=#005700;fontSize=9;" parent="bSD-Y_1db5gp3y5uP0RW-38" vertex="1">
                    <mxGeometry x="55" width="80" height="20" as="geometry"/>
                </mxCell>
                <mxCell id="bSD-Y_1db5gp3y5uP0RW-40" value="( 1 ,&amp;nbsp;&lt;span style=&quot;color: rgb(0, 0, 0);&quot;&gt;d * num_group / num_head&lt;/span&gt;&amp;nbsp;)" style="text;html=1;align=center;verticalAlign=middle;resizable=0;points=[];autosize=1;strokeColor=none;fillColor=none;fontSize=9;" parent="bSD-Y_1db5gp3y5uP0RW-38" vertex="1">
                    <mxGeometry x="15" y="55" width="160" height="20" as="geometry"/>
                </mxCell>
                <mxCell id="bSD-Y_1db5gp3y5uP0RW-41" value="( 1 ,&amp;nbsp;&lt;span style=&quot;color: rgb(0, 0, 0);&quot;&gt;num_group * head_size&lt;/span&gt;&amp;nbsp;)" style="text;html=1;align=center;verticalAlign=middle;resizable=0;points=[];autosize=1;strokeColor=none;fillColor=none;fontSize=9;" parent="bSD-Y_1db5gp3y5uP0RW-38" vertex="1">
                    <mxGeometry x="25" y="35" width="140" height="20" as="geometry"/>
                </mxCell>
                <mxCell id="bSD-Y_1db5gp3y5uP0RW-48" value="" style="group" parent="1" vertex="1" connectable="0">
                    <mxGeometry x="545" y="697.5" width="160" height="75" as="geometry"/>
                </mxCell>
                <mxCell id="bSD-Y_1db5gp3y5uP0RW-44" value="query of one token" style="rounded=0;whiteSpace=wrap;html=1;fillColor=#008a00;fontColor=#ffffff;strokeColor=#005700;fontSize=9;" parent="bSD-Y_1db5gp3y5uP0RW-48" vertex="1">
                    <mxGeometry width="160" height="20" as="geometry"/>
                </mxCell>
                <mxCell id="bSD-Y_1db5gp3y5uP0RW-45" value="( 1 , d )" style="text;html=1;align=center;verticalAlign=middle;resizable=0;points=[];autosize=1;strokeColor=none;fillColor=none;fontSize=9;" parent="bSD-Y_1db5gp3y5uP0RW-48" vertex="1">
                    <mxGeometry x="55" y="55" width="50" height="20" as="geometry"/>
                </mxCell>
                <mxCell id="bSD-Y_1db5gp3y5uP0RW-46" value="( 1 , num_head * head_size )" style="text;html=1;align=center;verticalAlign=middle;resizable=0;points=[];autosize=1;strokeColor=none;fillColor=none;fontSize=9;" parent="bSD-Y_1db5gp3y5uP0RW-48" vertex="1">
                    <mxGeometry x="10" y="35" width="140" height="20" as="geometry"/>
                </mxCell>
                <mxCell id="bSD-Y_1db5gp3y5uP0RW-49" value="" style="group" parent="1" vertex="1" connectable="0">
                    <mxGeometry x="10" y="447.5" width="160" height="55" as="geometry"/>
                </mxCell>
                <mxCell id="bSD-Y_1db5gp3y5uP0RW-1" value="embedding of one token" style="rounded=0;whiteSpace=wrap;html=1;fillColor=#008a00;fontColor=#ffffff;strokeColor=#005700;fontSize=9;" parent="bSD-Y_1db5gp3y5uP0RW-49" vertex="1">
                    <mxGeometry width="160" height="20" as="geometry"/>
                </mxCell>
                <mxCell id="bSD-Y_1db5gp3y5uP0RW-2" value="(1,d)" style="text;html=1;align=center;verticalAlign=middle;resizable=0;points=[];autosize=1;strokeColor=none;fillColor=none;fontSize=9;" parent="bSD-Y_1db5gp3y5uP0RW-49" vertex="1">
                    <mxGeometry x="60" y="35" width="40" height="20" as="geometry"/>
                </mxCell>
            </root>
        </mxGraphModel>
    </diagram>
    <diagram id="94Mdhr5nRz3oIhFNQH71" name="MLA">
        <mxGraphModel dx="621" dy="454" grid="1" gridSize="10" guides="1" tooltips="1" connect="1" arrows="1" fold="1" page="1" pageScale="1" pageWidth="827" pageHeight="1169" math="0" shadow="0">
            <root>
                <mxCell id="0"/>
                <mxCell id="1" parent="0"/>
                <mxCell id="waBXIaDbH0AGQHeEETOf-25" value="" style="group" parent="1" vertex="1" connectable="0">
                    <mxGeometry x="10" y="447.5" width="160" height="55" as="geometry"/>
                </mxCell>
                <mxCell id="waBXIaDbH0AGQHeEETOf-26" value="embedding of one token" style="rounded=0;whiteSpace=wrap;html=1;fillColor=#008a00;fontColor=#ffffff;strokeColor=#005700;fontSize=9;" parent="waBXIaDbH0AGQHeEETOf-25" vertex="1">
                    <mxGeometry width="160" height="20" as="geometry"/>
                </mxCell>
                <mxCell id="waBXIaDbH0AGQHeEETOf-27" value="(1,d)" style="text;html=1;align=center;verticalAlign=middle;resizable=0;points=[];autosize=1;strokeColor=none;fillColor=none;fontSize=9;" parent="waBXIaDbH0AGQHeEETOf-25" vertex="1">
                    <mxGeometry x="60" y="35" width="40" height="20" as="geometry"/>
                </mxCell>
                <mxCell id="6y7yOScQGX3Fliall1ef-2" value="" style="group" parent="1" vertex="1" connectable="0">
                    <mxGeometry x="230" y="250" width="60" height="190" as="geometry"/>
                </mxCell>
                <mxCell id="waBXIaDbH0AGQHeEETOf-2" value="&lt;font style=&quot;color: rgb(255, 255, 255);&quot;&gt;low rank&amp;nbsp;&lt;/font&gt;&lt;div&gt;&lt;font style=&quot;color: rgb(255, 255, 255);&quot;&gt;projection matrix&lt;/font&gt;&lt;/div&gt;" style="rounded=0;whiteSpace=wrap;html=1;fillColor=#008a00;fontColor=#ffffff;strokeColor=#005700;fontSize=9;container=0;" parent="6y7yOScQGX3Fliall1ef-2" vertex="1">
                    <mxGeometry x="7.5" width="45" height="160" as="geometry"/>
                </mxCell>
                <mxCell id="waBXIaDbH0AGQHeEETOf-3" value="( d , d_c )" style="text;html=1;align=center;verticalAlign=middle;resizable=0;points=[];autosize=1;strokeColor=none;fillColor=none;fontSize=9;container=0;" parent="6y7yOScQGX3Fliall1ef-2" vertex="1">
                    <mxGeometry y="170" width="60" height="20" as="geometry"/>
                </mxCell>
                <mxCell id="waBXIaDbH0AGQHeEETOf-14" value="one token" style="rounded=0;whiteSpace=wrap;html=1;fillColor=#008a00;fontColor=#ffffff;strokeColor=#005700;fontSize=9;" parent="1" vertex="1">
                    <mxGeometry x="337.5" y="322.5" width="45" height="20" as="geometry"/>
                </mxCell>
                <mxCell id="waBXIaDbH0AGQHeEETOf-16" value="( 1 ,&amp;nbsp;&lt;span style=&quot;color: rgb(0, 0, 0);&quot;&gt;d_c&lt;/span&gt;&amp;nbsp;)" style="text;html=1;align=center;verticalAlign=middle;resizable=0;points=[];autosize=1;strokeColor=none;fillColor=none;fontSize=9;" parent="1" vertex="1">
                    <mxGeometry x="330" y="347.5" width="60" height="20" as="geometry"/>
                </mxCell>
            </root>
        </mxGraphModel>
    </diagram>
</mxfile>